# 3ds Max Wavefront OBJ Exporter v0.97b - (c)2007 guruware
# File Created: 07.12.2017 02:45:00

mtllib play.mtl

#
# object Box001
#

v  -87.2816 0.5329 -30.5517
v  -87.2816 25.5843 -30.5517
v  -81.2720 25.5843 -30.5517
v  -81.2720 0.5329 -30.5517
v  -87.2816 0.5329 30.5517
v  -81.2720 0.5329 30.5517
v  -81.2720 25.5843 30.5517
v  -87.2816 25.5843 30.5517
v  69.1299 0.6513 -30.5517
v  69.1192 25.0141 -30.5517
v  69.1192 25.0141 30.5517
v  69.1299 0.6513 30.5517
v  -87.2816 59.0651 -30.5517
v  -87.2816 51.5581 -30.5517
v  -87.2816 51.5581 30.5517
v  -87.2816 59.0651 30.5517
v  22.1076 52.9529 -30.5517
v  42.4909 0.0008 -30.5517
v  34.0756 0.0008 -30.5517
v  27.8416 16.3540 -30.5517
v  25.1866 23.3185 -30.5517
v  18.0850 41.9475 -30.5517
v  -6.4372 0.0008 30.5517
v  2.8252 0.0008 30.5517
v  8.7758 16.3575 30.5517
v  11.3063 23.3132 30.5517
v  18.0847 41.9455 30.5517
v  13.9083 52.9524 30.5517
v  -6.4372 0.0008 -30.5517
v  2.8230 0.0008 -30.5517
v  -38.2789 59.5332 -30.5517
v  -30.2776 59.5332 -30.5517
v  -30.2776 6.2724 -30.5517
v  -38.2789 6.2724 -30.5517
v  -38.2789 -0.4710 30.5517
v  -30.2776 -0.4710 30.5517
v  -30.2776 6.2724 30.5517
v  -38.2789 6.2724 30.5517
v  -38.2789 -0.4710 -30.5517
v  -30.2776 -0.4710 -30.5517
v  -63.5726 54.6592 -30.5517
v  -69.8091 58.3875 -30.5517
v  -69.8091 58.3875 30.5517
v  -63.5726 54.6592 30.5517
v  18.9080 61.3178 -30.5517
v  17.1457 61.3178 -30.5517
v  17.1457 61.3178 30.5517
v  18.9080 61.3178 30.5517
v  79.3376 59.6452 -30.5517
v  87.2816 59.6452 -30.5517
v  65.2602 32.6880 -30.5517
v  61.2572 0.6513 30.5517
v  61.2547 25.0141 30.5517
v  61.2572 0.6513 -30.5517
v  13.9090 52.9524 -30.5517
v  -59.5727 49.3006 30.5517
v  -59.5727 49.3007 -30.5517
v  -38.2789 59.5332 30.5517
v  43.7220 59.6452 -30.5517
v  61.2547 25.0141 -30.5517
v  43.7220 59.6452 30.5517
v  22.1071 52.9524 30.5517
v  -87.2816 34.2847 -30.5517
v  -81.2720 33.8255 -30.5517
v  -65.0124 29.1306 30.5517
v  -68.0365 35.5639 30.5517
v  -71.2475 34.3451 30.5517
v  -69.5732 26.3679 30.5517
v  -81.2720 59.0651 -30.5517
v  -81.2720 59.0651 30.5517
v  -75.4524 59.0959 -30.5517
v  -75.0384 51.7707 -30.5517
v  -81.2720 51.6787 -30.5517
v  -81.2720 51.6787 30.5517
v  -72.2436 58.8359 -30.5517
v  -72.2436 58.8359 30.5517
v  -71.5817 51.1302 30.5517
v  -68.3104 49.5290 30.5517
v  -68.3104 49.5290 -30.5517
v  -87.2816 34.2847 30.5517
v  -58.6716 45.9195 30.5517
v  -58.6716 45.9195 -30.5517
v  -81.2720 33.8255 30.5517
v  -66.2290 46.1098 -30.5517
v  -59.5789 36.4422 30.5517
v  -61.7795 32.5857 30.5517
v  -61.7795 32.5857 -30.5517
v  -59.5789 36.4422 -30.5517
v  -68.0365 35.5639 -30.5517
v  -65.0124 29.1306 -30.5517
v  -69.5732 26.3680 -30.5517
v  -71.2475 34.3451 -30.5517
v  -74.8075 25.6788 30.5517
v  -74.4243 33.8775 30.5517
v  -74.8075 25.6788 -30.5517
v  -66.8922 37.2917 30.5517
v  -66.8922 37.2917 -30.5517
v  -71.5817 51.1302 -30.5517
v  -58.5397 42.4071 30.5517
v  -58.5397 42.4071 -30.5517
v  -66.2089 39.3166 -30.5517
v  -65.7041 42.8006 -30.5517
v  -66.2290 46.1098 30.5517
v  -65.7041 42.8006 30.5517
v  -75.4524 59.0958 30.5517
v  -75.0384 51.7707 30.5517
v  -74.4243 33.8775 -30.5517
v  -66.2089 39.3166 30.5517
v  -17.4915 6.2724 -30.5517
v  -17.4915 -0.4710 -30.5517
v  -17.4915 6.2724 30.5517
v  -17.4915 -0.4710 30.5517
v  -30.2776 59.5332 30.5517
v  34.0748 0.0008 30.5517
v  42.4909 0.0008 30.5517
v  25.1819 23.3284 30.5517
v  27.8402 16.3553 30.5517
v  11.3066 23.3174 -30.5517
v  8.7719 16.3509 -30.5517
v  87.2816 59.6452 30.5517
v  51.7001 59.6452 30.5517
v  65.2611 32.6836 30.5517
v  79.3390 59.6452 30.5517
v  51.7022 59.6452 -30.5517
# 124 vertices

vn 0.0000 0.0000 -1.0000
vn 0.0000 -0.0000 1.0000
vn 0.0000 -1.0000 -0.0000
vn 1.0000 0.0004 0.0000
vn 0.9710 -0.2390 -0.0000
vn -1.0000 0.0000 -0.0000
vn 0.0000 -1.0000 0.0000
vn -0.0000 0.0000 -1.0000
vn -0.0000 -1.0000 -0.0000
vn 0.5131 0.8583 -0.0000
vn 0.3527 0.9357 -0.0000
vn 0.0000 1.0000 0.0000
vn -0.9326 0.3609 -0.0000
vn 0.8014 0.5982 -0.0000
vn -0.8922 -0.4517 -0.0000
vn 0.9340 0.3572 0.0000
vn -0.0026 1.0000 -0.0000
vn -0.0000 1.0000 0.0000
vn -0.0026 1.0000 0.0000
vn 0.1311 0.9914 -0.0000
vn 0.9663 0.2575 -0.0000
vn 0.8685 -0.4956 -0.0000
vn 0.3324 -0.9432 -0.0000
vn 1.0000 0.0000 -0.0000
vn -0.8337 0.5522 0.0000
vn -0.3549 0.9349 0.0000
vn -0.4396 -0.8982 0.0000
vn 0.9852 -0.1716 -0.0000
vn -0.0000 -0.0000 -1.0000
vn -0.9877 -0.1567 -0.0000
vn 0.0378 0.9993 -0.0000
vn 0.0146 -0.9999 -0.0000
vn -0.0076 1.0000 0.0000
vn 0.0148 -0.9999 0.0000
vn -0.9897 0.1434 0.0000
vn 0.9993 0.0375 -0.0000
vn -0.8542 -0.5200 -0.0000
vn -0.9335 0.3587 -0.0000
vn -0.9344 -0.3562 -0.0000
vn -0.0006 1.0000 -0.0001
vn 0.9397 -0.3419 -0.0000
vn 0.0000 -1.0000 0.0001
vn 0.9397 -0.3419 -0.0001
vn 0.9332 0.3592 0.0000
vn 0.8856 -0.4645 -0.0000
vn -1.0000 -0.0001 -0.0000
vn -0.8864 0.4629 0.0001
vn 0.8934 0.4493 0.0000
vn -0.1456 0.9893 0.0000
vn -0.1822 -0.9833 0.0000
vn 0.7302 -0.6832 -0.0000
vn -0.9475 0.3198 0.0000
# 52 vertex normals

vt 0.9747 0.6085 0.0000
vt 0.9769 0.7065 0.0000
vt 0.9534 0.7071 0.0000
vt 0.9512 0.6090 0.0000
vt 0.8405 0.8838 0.0000
vt 0.8170 0.8838 0.0000
vt 0.8170 0.7857 0.0000
vt 0.8405 0.7857 0.0000
vt 0.5028 0.2674 0.0000
vt 0.5028 0.2439 0.0000
vt 0.6399 0.2439 0.0000
vt 0.6399 0.2674 0.0000
vt 0.0200 0.4187 0.0000
vt 0.0200 0.3233 0.0000
vt 0.1571 0.3233 0.0000
vt 0.1571 0.4187 0.0000
vt 0.5027 0.4968 0.0000
vt 0.5027 0.4673 0.0000
vt 0.6399 0.4673 0.0000
vt 0.6399 0.4968 0.0000
vt 0.7700 0.1872 0.0000
vt 0.9773 0.1074 0.0000
vt 0.9773 0.1403 0.0000
vt 0.9133 0.1647 0.0000
vt 0.8860 0.1751 0.0000
vt 0.8130 0.2029 0.0000
vt 0.3556 0.8690 0.0000
vt 0.3556 0.8327 0.0000
vt 0.4197 0.8094 0.0000
vt 0.4469 0.7995 0.0000
vt 0.5199 0.7730 0.0000
vt 0.5630 0.7894 0.0000
vt 0.3180 0.2841 0.0000
vt 0.3180 0.3204 0.0000
vt 0.1809 0.3204 0.0000
vt 0.1809 0.2841 0.0000
vt 0.2550 0.8843 0.0000
vt 0.2550 0.9156 0.0000
vt 0.0464 0.9156 0.0000
vt 0.0464 0.8843 0.0000
vt 0.6636 0.3060 0.0000
vt 0.6950 0.3056 0.0000
vt 0.6953 0.3320 0.0000
vt 0.6640 0.3324 0.0000
vt 0.3418 0.1779 0.0000
vt 0.3418 0.1465 0.0000
vt 0.4789 0.1465 0.0000
vt 0.4789 0.1779 0.0000
vt 0.5027 0.5939 0.0000
vt 0.5027 0.5654 0.0000
vt 0.6399 0.5654 0.0000
vt 0.6399 0.5939 0.0000
vt 0.3180 0.0200 0.0000
vt 0.3180 0.0269 0.0000
vt 0.1809 0.0269 0.0000
vt 0.1809 0.0200 0.0000
vt 0.7085 0.6181 0.0000
vt 0.6774 0.6177 0.0000
vt 0.7506 0.4832 0.0000
vt 0.7653 0.5134 0.0000
vt 0.6963 0.2703 0.0000
vt 0.6667 0.2616 0.0000
vt 0.6937 0.1701 0.0000
vt 0.7232 0.1788 0.0000
vt 0.0200 0.4495 0.0000
vt 0.1571 0.4495 0.0000
vt 0.3180 0.0620 0.0000
vt 0.1809 0.0620 0.0000
vt 0.6399 0.6201 0.0000
vt 0.5027 0.6201 0.0000
vt 0.3418 0.4128 0.0000
vt 0.3418 0.2043 0.0000
vt 0.4789 0.2043 0.0000
vt 0.4789 0.4128 0.0000
vt 0.0200 0.6969 0.0000
vt 0.0200 0.5449 0.0000
vt 0.1570 0.5449 0.0000
vt 0.1570 0.6969 0.0000
vt 0.3180 0.8219 0.0000
vt 0.1809 0.8219 0.0000
vt 0.1809 0.7869 0.0000
vt 0.3180 0.7869 0.0000
vt 0.9777 0.7406 0.0000
vt 0.9541 0.7393 0.0000
vt 0.7534 0.7718 0.0000
vt 0.7652 0.7466 0.0000
vt 0.7778 0.7514 0.0000
vt 0.7712 0.7826 0.0000
vt 0.5028 0.3656 0.0000
vt 0.6399 0.3656 0.0000
vt 0.5027 0.5203 0.0000
vt 0.6399 0.5203 0.0000
vt 0.9564 0.8381 0.0000
vt 0.9336 0.8388 0.0000
vt 0.9314 0.8102 0.0000
vt 0.9557 0.8092 0.0000
vt 0.8170 0.6546 0.0000
vt 0.8405 0.6546 0.0000
vt 0.8405 0.6840 0.0000
vt 0.8170 0.6835 0.0000
vt 0.5027 0.5557 0.0000
vt 0.6399 0.5557 0.0000
vt 0.7721 0.6572 0.0000
vt 0.7817 0.6555 0.0000
vt 0.7791 0.6856 0.0000
vt 0.7663 0.6919 0.0000
vt 0.9115 0.8365 0.0000
vt 0.8867 0.8225 0.0000
vt 0.9048 0.8020 0.0000
vt 0.5028 0.3996 0.0000
vt 0.6399 0.3997 0.0000
vt 0.6399 0.6338 0.0000
vt 0.5027 0.6338 0.0000
vt 0.9793 0.8082 0.0000
vt 0.9799 0.8376 0.0000
vt 0.7321 0.6928 0.0000
vt 0.7477 0.6718 0.0000
vt 0.8405 0.7516 0.0000
vt 0.8170 0.7534 0.0000
vt 0.8706 0.8019 0.0000
vt 0.8668 0.7887 0.0000
vt 0.8964 0.7888 0.0000
vt 0.6399 0.0437 0.0000
vt 0.6399 0.0611 0.0000
vt 0.5028 0.0611 0.0000
vt 0.5028 0.0437 0.0000
vt 0.9025 0.7473 0.0000
vt 0.8901 0.7224 0.0000
vt 0.9077 0.7112 0.0000
vt 0.9150 0.7423 0.0000
vt 0.7917 0.7853 0.0000
vt 0.7902 0.7532 0.0000
vt 0.6399 0.1001 0.0000
vt 0.6399 0.1204 0.0000
vt 0.5028 0.1204 0.0000
vt 0.5028 0.1001 0.0000
vt 0.5028 0.0797 0.0000
vt 0.6399 0.0797 0.0000
vt 0.6399 0.1457 0.0000
vt 0.5028 0.1457 0.0000
vt 0.9800 0.5015 0.0000
vt 0.9800 0.5715 0.0000
vt 0.8429 0.5715 0.0000
vt 0.8429 0.5015 0.0000
vt 0.8429 0.4487 0.0000
vt 0.8429 0.4406 0.0000
vt 0.9800 0.4406 0.0000
vt 0.9800 0.4487 0.0000
vt 0.9800 0.4622 0.0000
vt 0.8429 0.4622 0.0000
vt 0.8429 0.3897 0.0000
vt 0.8429 0.3754 0.0000
vt 0.9800 0.3754 0.0000
vt 0.9800 0.3897 0.0000
vt 0.6399 0.0200 0.0000
vt 0.5028 0.0200 0.0000
vt 0.8659 0.7750 0.0000
vt 0.8695 0.7515 0.0000
vt 0.8957 0.7622 0.0000
vt 0.8940 0.7759 0.0000
vt 0.7280 0.7198 0.0000
vt 0.7285 0.7060 0.0000
vt 0.7581 0.7053 0.0000
vt 0.7561 0.7182 0.0000
vt 0.8429 0.4184 0.0000
vt 0.8429 0.4053 0.0000
vt 0.9800 0.4053 0.0000
vt 0.9800 0.4184 0.0000
vt 0.9211 0.8381 0.0000
vt 0.9178 0.8080 0.0000
vt 0.5027 0.5431 0.0000
vt 0.6399 0.5431 0.0000
vt 0.7942 0.6544 0.0000
vt 0.7926 0.6831 0.0000
vt 0.9281 0.7080 0.0000
vt 0.9273 0.7402 0.0000
vt 0.9800 0.4747 0.0000
vt 0.8429 0.4747 0.0000
vt 0.8429 0.3616 0.0000
vt 0.8429 0.3372 0.0000
vt 0.9800 0.3372 0.0000
vt 0.9800 0.3616 0.0000
vt 0.7407 0.7582 0.0000
vt 0.7607 0.7398 0.0000
vt 0.7321 0.7431 0.0000
vt 0.7580 0.7319 0.0000
vt 0.8777 0.7362 0.0000
vt 0.8982 0.7542 0.0000
vt 0.8429 0.4322 0.0000
vt 0.9800 0.4322 0.0000
vt 0.6399 0.6475 0.0000
vt 0.5027 0.6475 0.0000
vt 0.0464 0.9657 0.0000
vt 0.0200 0.9657 0.0000
vt 0.0200 0.9156 0.0000
vt 0.4789 0.0701 0.0000
vt 0.4789 0.0965 0.0000
vt 0.3418 0.0965 0.0000
vt 0.3418 0.0701 0.0000
vt 0.3418 0.4441 0.0000
vt 0.4789 0.4441 0.0000
vt 0.7450 0.3050 0.0000
vt 0.7453 0.3314 0.0000
vt 0.0200 0.8843 0.0000
vt 0.6977 0.5406 0.0000
vt 0.6664 0.5409 0.0000
vt 0.3418 0.0200 0.0000
vt 0.4789 0.0200 0.0000
vt 0.3418 0.6527 0.0000
vt 0.4789 0.6527 0.0000
vt 0.3556 0.7104 0.0000
vt 0.3556 0.6774 0.0000
vt 0.5630 0.7572 0.0000
vt 0.4470 0.7452 0.0000
vt 0.4197 0.7348 0.0000
vt 0.7700 0.2193 0.0000
vt 0.8860 0.2295 0.0000
vt 0.9133 0.2394 0.0000
vt 0.9773 0.2627 0.0000
vt 0.9773 0.2989 0.0000
vt 0.3180 0.5317 0.0000
vt 0.3180 0.5647 0.0000
vt 0.1809 0.5647 0.0000
vt 0.1809 0.5317 0.0000
vt 0.7129 0.8200 0.0000
vt 0.7909 0.8200 0.0000
vt 0.7909 0.9570 0.0000
vt 0.7128 0.9570 0.0000
vt 0.6585 0.8200 0.0000
vt 0.6585 0.9570 0.0000
vt 0.5809 0.9570 0.0000
vt 0.5809 0.8200 0.0000
vt 0.1809 0.4632 0.0000
vt 0.1809 0.3886 0.0000
vt 0.3180 0.3885 0.0000
vt 0.3180 0.4632 0.0000
vt 0.5957 0.7698 0.0000
vt 0.5957 0.7767 0.0000
vt 0.7372 0.2066 0.0000
vt 0.7372 0.1997 0.0000
vt 0.0200 0.1702 0.0000
vt 0.1571 0.1702 0.0000
vt 0.7520 0.3878 0.0000
vt 0.7828 0.3882 0.0000
vt 0.7814 0.4836 0.0000
vt 0.7974 0.0593 0.0000
vt 0.8274 0.0682 0.0000
vt 0.7166 0.1456 0.0000
vt 0.6636 0.0200 0.0000
vt 0.6935 0.0288 0.0000
vt 0.8481 0.6202 0.0000
vt 0.8169 0.6197 0.0000
vt 0.0200 0.1391 0.0000
vt 0.1571 0.1391 0.0000
vt 0.0200 0.7282 0.0000
vt 0.1570 0.7282 0.0000
vt 0.0200 0.0200 0.0000
vt 0.1571 0.0200 0.0000
vt 0.0200 0.8463 0.0000
vt 0.1570 0.8463 0.0000
# 260 texture coords

g Box001
usemtl 01___Default
s 1
f 1/1/1 2/2/1 3/3/1 4/4/1 
f 5/5/2 6/6/2 7/7/2 8/8/2 
s 2
f 1/9/3 4/10/3 6/11/3 5/12/3 
s 4
f 9/13/4 10/14/5 11/15/5 12/16/4 
f 13/17/6 14/18/6 15/19/6 16/20/6 
s 1
f 17/21/1 18/22/1 19/23/1 20/24/1 21/25/1 22/26/1 
f 23/27/2 24/28/2 25/29/2 26/30/2 27/31/2 28/32/2 
s 2
f 29/33/3 30/34/3 24/35/7 23/36/3 
s 1
f 31/37/8 32/38/8 33/39/8 34/40/8 
f 35/41/2 36/42/2 37/43/2 38/44/2 
s 2
f 39/45/3 40/46/3 36/47/9 35/48/3 
f 41/49/10 42/50/11 43/51/11 44/52/10 
f 45/53/12 46/54/12 47/55/12 48/56/12 
s 1
f 49/57/8 50/58/8 10/59/1 51/60/8 
f 52/61/2 12/62/2 11/63/2 53/64/2 
s 2
f 54/65/3 9/13/3 12/16/3 52/66/3 
s off
f 46/54/13 55/67/13 28/68/13 47/55/13 
f 41/49/14 44/52/14 56/69/14 57/70/14 
f 31/71/6 34/72/6 38/73/6 58/74/6 
f 59/75/15 60/76/15 53/77/15 61/78/15 
f 45/79/16 48/80/16 62/81/16 17/82/16 
s 1
f 2/2/1 63/83/8 64/84/8 3/3/1 
f 65/85/2 66/86/2 67/87/2 68/88/2 
s 4
f 2/89/6 1/9/6 5/12/6 8/90/6 
s 2
f 69/91/17 13/17/18 16/20/18 70/92/19 
s 1
f 69/93/1 71/94/1 72/95/1 73/96/1 
f 70/97/2 16/98/2 15/99/2 74/100/2 
s 2
f 42/50/11 75/101/20 76/102/20 43/51/11 
s 1
f 43/103/2 76/104/2 77/105/2 78/106/2 
f 42/107/8 41/108/1 79/109/1 
s 4
f 14/18/6 63/110/6 80/111/6 15/19/6 
s off
f 56/69/21 81/112/21 82/113/21 57/70/21 
s 1
f 14/114/8 13/115/8 69/93/1 73/96/1 
f 56/116/2 44/117/2 78/106/2 
f 15/99/2 80/118/2 83/119/2 74/100/2 
f 57/120/1 82/121/8 84/122/1 79/109/1 
f 63/83/8 14/114/8 73/96/1 64/84/8 
s 4
f 63/110/6 2/89/6 8/90/6 80/111/6 
s off
f 85/123/22 86/124/22 87/125/22 88/126/22 
s 1
f 89/127/1 90/128/1 91/129/1 92/130/1 
f 80/118/2 8/8/2 7/7/2 83/119/2 
f 83/119/2 7/7/2 93/131/2 94/132/2 
s off
f 68/133/23 93/134/23 95/135/23 91/136/23 90/137/23 65/138/23 
f 7/139/24 6/11/24 4/10/24 3/140/24 
f 64/141/24 73/142/24 74/143/24 83/144/24 
f 66/145/25 96/146/25 97/147/25 89/148/25 
f 89/148/26 92/149/26 67/150/26 66/145/26 
f 78/151/27 77/152/27 98/153/27 79/154/27 
f 99/155/28 85/123/28 88/126/28 100/156/28 
s 1
f 100/157/29 88/158/1 101/159/1 102/160/29 
f 99/161/2 81/162/2 103/163/2 104/164/2 
s off
f 104/165/30 103/166/30 84/167/30 102/168/30 
s 1
f 71/94/1 75/169/1 98/170/1 72/95/1 
s 2
f 71/171/31 69/91/17 70/92/19 105/172/31 
s 1
f 105/173/2 70/97/2 74/100/2 106/174/2 
f 95/175/1 3/3/1 64/84/8 107/176/1 
f 93/131/2 68/88/2 67/87/2 94/132/2 
s off
f 93/134/32 7/139/32 3/140/32 95/135/32 
f 107/177/33 64/141/33 83/144/33 94/178/33 
f 106/179/34 74/180/34 73/181/34 72/182/34 
s 1
f 41/108/1 57/120/1 79/109/1 
f 44/117/2 43/103/2 78/106/2 
f 65/85/2 86/183/2 96/184/2 66/86/2 
f 85/185/2 99/161/2 104/164/2 108/186/2 
f 88/158/1 87/187/1 97/188/1 101/159/1 
s off
f 108/189/35 104/165/35 102/168/35 101/190/35 
f 81/112/36 99/191/36 100/192/36 82/113/36 
s 1
f 82/121/8 100/157/29 102/160/29 84/122/1 
f 81/162/2 56/116/2 78/106/2 103/163/2 
s off
f 103/166/37 78/151/37 79/154/37 84/167/37 
s 1
f 109/193/1 110/194/1 40/195/8 33/39/8 
s off
f 111/196/24 112/197/24 110/198/24 109/199/24 
f 34/72/6 39/45/6 35/48/6 38/73/6 
s 2
f 32/200/18 31/71/12 58/74/12 113/201/12 
s 1
f 36/42/2 112/202/2 111/203/2 37/43/2 
s 2
f 40/46/3 110/198/9 112/197/3 36/47/9 
s 1
f 40/195/8 39/204/8 34/40/8 33/39/8 
f 113/205/2 58/206/2 38/44/2 37/43/2 
s off
f 33/207/12 37/208/12 111/196/12 109/199/12 
f 33/209/24 32/200/24 113/201/24 37/210/24 
s 1
f 114/211/2 115/212/2 62/213/2 27/31/2 116/214/2 117/215/2 
f 27/31/2 62/213/2 28/32/2 
f 55/216/8 17/21/1 22/26/1 
f 22/26/1 118/217/1 119/218/1 30/219/1 29/220/8 55/216/8 
s off
f 55/67/38 29/33/38 23/36/38 28/68/38 
s 2
f 19/221/3 18/222/9 115/223/9 114/224/9 
s 1
f 117/215/2 116/214/2 26/30/2 25/29/2 
f 21/25/1 20/24/1 119/218/1 118/217/1 
s off
f 116/225/39 27/226/39 22/227/39 21/228/39 
f 26/229/40 116/225/40 21/228/40 118/230/40 
f 118/230/41 22/231/41 27/232/41 26/229/41 
f 117/233/42 25/234/42 119/235/42 20/236/42 
f 25/234/43 24/35/43 30/34/43 119/235/43 
f 114/224/39 117/233/39 20/236/39 19/221/39 
f 62/81/44 115/223/44 18/222/44 17/82/44 
s 1
f 62/213/2 48/237/2 47/238/2 28/32/2 
f 55/216/8 46/239/1 45/240/1 17/21/1 
s 4
f 10/14/5 50/241/45 120/242/45 11/15/5 
s 1
f 10/59/1 9/243/1 54/244/1 60/245/1 
f 121/246/2 61/247/2 53/64/2 122/248/2 
s off
f 60/76/46 54/65/46 52/66/46 53/77/46 
s 1
f 53/64/2 11/63/2 122/248/2 
f 11/63/2 120/249/2 123/250/2 122/248/2 
f 10/59/1 60/245/1 51/60/8 
f 60/245/1 59/251/1 124/252/1 51/60/8 
s off
f 120/242/12 50/241/12 49/253/12 123/254/12 
f 124/255/18 59/75/18 61/78/18 121/256/18 
f 49/253/47 51/257/47 122/258/47 123/254/47 
f 51/259/48 124/255/48 121/256/48 122/260/48 
s 1
f 91/129/1 95/175/1 107/176/1 92/130/1 
s off
f 92/149/49 107/177/49 94/178/49 67/150/49 
s 2
f 75/101/20 71/171/31 105/172/31 76/102/20 
s 1
f 76/104/2 105/173/2 106/174/2 77/105/2 
s off
f 77/152/50 106/179/50 72/182/50 98/153/50 
s 1
f 75/169/1 42/107/8 79/109/1 98/170/1 
s off
f 86/124/51 65/138/51 90/137/51 87/125/51 
f 96/146/52 108/189/52 101/190/52 97/147/52 
s 1
f 86/183/2 85/185/2 108/186/2 96/184/2 
f 87/187/1 90/128/1 89/127/1 97/188/1 
# 111 polygons - 8 triangles

