# 3ds Max Wavefront OBJ Exporter v0.97b - (c)2007 guruware
# File Created: 09.12.2017 17:32:24

mtllib foot_right.mtl

#
# object right
#

v  -8.7030 6.3755 -0.5947
v  -7.7072 5.8579 -3.8316
v  -8.7030 5.8579 -4.0983
v  -6.8630 5.8579 -3.0721
v  -6.2990 5.8579 -1.9355
v  -6.1009 5.8579 -0.5947
v  -6.2990 5.8579 0.7461
v  -6.8630 5.8579 1.8827
v  -7.7072 5.8579 2.6422
v  -8.7030 5.8579 2.9089
v  -9.6988 5.8579 2.6422
v  -10.5430 5.8579 1.8827
v  -11.1071 5.8579 0.7461
v  -11.3052 5.8579 -0.5947
v  -11.1071 5.8579 -1.9355
v  -10.5430 5.8579 -3.0721
v  -9.6988 5.8579 -3.8316
v  -6.8630 4.8081 -6.1387
v  -8.7030 4.8081 -6.6648
v  -5.4576 4.8081 -4.7550
v  -5.3000 4.8081 -2.7693
v  -4.2003 4.8081 -0.4264
v  -4.2609 4.8081 2.1919
v  -5.3032 4.8081 3.5720
v  -6.8630 4.8081 4.9754
v  -8.7030 4.8081 5.4681
v  -10.5430 4.8081 4.9754
v  -12.1029 4.8081 3.5720
v  -13.1452 4.8081 1.4718
v  -13.5112 4.8081 -0.2855
v  -13.1452 4.8081 -2.9038
v  -12.1029 4.8081 -5.1428
v  -10.5430 4.8081 -6.5461
v  -6.2990 2.6021 -7.9723
v  -8.7030 2.6021 -8.6494
v  -4.4154 2.6021 -6.1583
v  -3.9382 2.6021 -3.3384
v  -2.7263 2.6021 -0.3544
v  -2.8991 2.6021 3.3091
v  -4.2609 2.6021 5.4753
v  -6.2990 2.6021 7.3089
v  -8.7030 2.6021 7.9527
v  -11.1071 2.6021 7.3089
v  -13.1452 2.6021 5.4753
v  -14.5070 2.6021 2.7312
v  -14.9852 2.6021 0.0721
v  -14.5070 2.6021 -3.5913
v  -13.0770 2.6021 -6.5461
v  -11.1071 2.6021 -8.0129
v  -6.1549 0.7095 -7.8033
v  -8.7030 0.7095 -8.5190
v  -4.1492 0.7095 -5.8795
v  -3.5904 0.7095 -3.3587
v  -2.3498 0.7095 0.0722
v  -2.5513 0.7095 3.5030
v  -3.9947 0.7095 6.4116
v  -6.1549 0.7095 8.3550
v  -8.7030 0.7095 9.0375
v  -11.2512 0.7095 8.3550
v  -13.4114 0.7095 6.4116
v  -14.8548 0.7095 3.5030
v  -15.3616 0.7095 0.0721
v  -14.8548 0.7095 -3.3587
v  -13.3432 0.7095 -6.2673
v  -11.2512 0.7095 -7.8439
v  -8.7030 -0.0000 -7.7159
v  -8.7030 -0.0000 8.2344
v  -11.0229 -0.0000 7.6131
v  -11.0229 -0.0000 -7.1020
v  -6.3832 -0.0000 -7.0613
v  -4.5709 -0.0000 -5.3116
v  -4.1415 -0.0000 -3.0514
v  -2.7425 -0.0000 0.0722
v  -3.1024 -0.0000 3.1957
v  -4.4165 -0.0000 5.8437
v  -6.3832 -0.0000 7.6131
v  -12.9896 -0.0000 5.8437
v  -14.3037 -0.0000 3.1957
v  -14.7652 -0.0000 0.0721
v  -14.3037 -0.0000 -3.0514
v  -12.9896 -0.0000 -5.6994
# 81 vertices

vn 0.0000 1.0000 0.0000
vn 0.1390 0.9323 -0.3340
vn 0.0010 0.9329 -0.3602
vn 0.3019 0.9195 -0.2518
vn 0.3920 0.8976 -0.2018
vn 0.3516 0.9361 -0.0133
vn 0.3014 0.9443 0.1324
vn 0.2451 0.9366 0.2504
vn 0.1348 0.9339 0.3311
vn -0.0000 0.9329 0.3600
vn -0.1348 0.9339 0.3311
vn -0.2451 0.9366 0.2504
vn -0.3088 0.9413 0.1365
vn -0.3282 0.9446 -0.0027
vn -0.3063 0.9435 -0.1267
vn -0.2332 0.9440 -0.2335
vn -0.1203 0.9408 -0.3168
vn 0.2824 0.7225 -0.6311
vn 0.0511 0.7305 -0.6810
vn 0.6102 0.7087 -0.3542
vn 0.6849 0.6812 -0.2587
vn 0.6991 0.6908 -0.1845
vn 0.6181 0.7448 0.2514
vn 0.4111 0.7679 0.4913
vn 0.2530 0.7593 0.5996
vn 0.0000 0.7605 0.6493
vn -0.2530 0.7593 0.5996
vn -0.4689 0.7555 0.4576
vn -0.6059 0.7498 0.2658
vn -0.6739 0.7384 0.0250
vn -0.6308 0.7348 -0.2494
vn -0.4867 0.7262 -0.4855
vn -0.2341 0.7136 -0.6602
vn 0.3807 0.2651 -0.8859
vn 0.0168 0.2440 -0.9696
vn 0.7731 0.2996 -0.5591
vn 0.8798 0.3558 -0.3152
vn 0.9130 0.3460 -0.2163
vn 0.8559 0.3993 0.3286
vn 0.5844 0.4779 0.6558
vn 0.3335 0.5044 0.7965
vn -0.0000 0.5143 0.8576
vn -0.3335 0.5044 0.7965
vn -0.6264 0.4753 0.6178
vn -0.8341 0.4263 0.3500
vn -0.9265 0.3750 0.0321
vn -0.8701 0.3351 -0.3613
vn -0.6448 0.2795 -0.7114
vn -0.3375 0.2339 -0.9118
vn 0.3827 -0.3428 -0.8579
vn 0.0053 -0.3534 -0.9355
vn 0.7865 -0.2964 -0.5419
vn 0.8959 -0.2630 -0.3580
vn 0.9746 -0.1621 -0.1547
vn 0.9189 -0.2314 0.3195
vn 0.6792 -0.1752 0.7127
vn 0.3739 -0.1457 0.9160
vn -0.0000 -0.1391 0.9903
vn -0.3739 -0.1457 0.9160
vn -0.6905 -0.1651 0.7042
vn -0.9009 -0.1957 0.3873
vn -0.9727 -0.2319 0.0057
vn -0.8954 -0.2590 -0.3623
vn -0.6515 -0.2991 -0.6972
vn -0.3283 -0.3490 -0.8778
vn 0.0031 -0.8856 -0.4644
vn -0.0000 -0.8860 0.4636
vn -0.1774 -0.8860 0.4283
vn -0.1550 -0.8899 -0.4290
vn 0.1883 -0.8848 -0.4263
vn 0.4205 -0.8666 -0.2685
vn 0.3605 -0.9195 -0.1565
vn 0.5668 -0.8179 -0.0992
vn 0.4496 -0.8794 0.1565
vn 0.3278 -0.8860 0.3278
vn 0.1774 -0.8860 0.4283
vn -0.3278 -0.8860 0.3278
vn -0.4283 -0.8860 0.1774
vn -0.4636 -0.8860 -0.0000
vn -0.4283 -0.8860 -0.1774
vn -0.3264 -0.8716 -0.3658
# 81 vertex normals

vt 0.3609 0.3660 0.0000
vt 0.3938 0.4443 0.0000
vt 0.3611 0.4508 0.0000
vt 0.4222 0.4261 0.0000
vt 0.4410 0.3991 0.0000
vt 0.4470 0.3672 0.0000
vt 0.4397 0.3346 0.0000
vt 0.4209 0.3063 0.0000
vt 0.3932 0.2871 0.0000
vt 0.3602 0.2805 0.0000
vt 0.3273 0.2870 0.0000
vt 0.2998 0.3057 0.0000
vt 0.2819 0.3339 0.0000
vt 0.2759 0.3672 0.0000
vt 0.2828 0.3999 0.0000
vt 0.3015 0.4267 0.0000
vt 0.3289 0.4444 0.0000
vt 0.4233 0.5076 0.0000
vt 0.3605 0.5209 0.0000
vt 0.4718 0.4744 0.0000
vt 0.4831 0.4261 0.0000
vt 0.5174 0.3629 0.0000
vt 0.5133 0.2960 0.0000
vt 0.4792 0.2609 0.0000
vt 0.4243 0.2231 0.0000
vt 0.3584 0.2102 0.0000
vt 0.2925 0.2247 0.0000
vt 0.2382 0.2644 0.0000
vt 0.2047 0.3214 0.0000
vt 0.1946 0.3644 0.0000
vt 0.2091 0.4299 0.0000
vt 0.2462 0.4846 0.0000
vt 0.2989 0.5177 0.0000
vt 0.4548 0.5871 0.0000
vt 0.3618 0.6071 0.0000
vt 0.5301 0.5367 0.0000
vt 0.5684 0.4601 0.0000
vt 0.6035 0.3650 0.0000
vt 0.5904 0.2565 0.0000
vt 0.5382 0.1882 0.0000
vt 0.4551 0.1327 0.0000
vt 0.3565 0.1141 0.0000
vt 0.2583 0.1356 0.0000
vt 0.1766 0.1935 0.0000
vt 0.1241 0.2780 0.0000
vt 0.1077 0.3587 0.0000
vt 0.1304 0.4658 0.0000
vt 0.1909 0.5488 0.0000
vt 0.2676 0.5919 0.0000
vt 0.4828 0.6369 0.0000
vt 0.3634 0.6644 0.0000
vt 0.5776 0.5684 0.0000
vt 0.6296 0.4847 0.0000
vt 0.6636 0.3562 0.0000
vt 0.6437 0.2368 0.0000
vt 0.5759 0.1363 0.0000
vt 0.4746 0.0703 0.0000
vt 0.3555 0.0483 0.0000
vt 0.2370 0.0736 0.0000
vt 0.1371 0.1421 0.0000
vt 0.0709 0.2432 0.0000
vt 0.0481 0.3621 0.0000
vt 0.0732 0.4817 0.0000
vt 0.1445 0.5836 0.0000
vt 0.2424 0.6442 0.0000
vt 0.7685 0.5452 0.0000
vt 0.7685 0.9656 0.0000
vt 0.6862 0.9492 0.0000
vt 0.6862 0.5614 0.0000
vt 0.4948 0.6619 0.0000
vt 0.3645 0.6925 0.0000
vt 0.5985 0.5852 0.0000
vt 0.6588 0.4981 0.0000
vt 0.6872 0.3587 0.0000
vt 0.6688 0.2280 0.0000
vt 0.5958 0.1166 0.0000
vt 0.4851 0.0440 0.0000
vt 0.3551 0.0200 0.0000
vt 0.2258 0.0475 0.0000
vt 0.1168 0.1222 0.0000
vt 0.0446 0.2327 0.0000
vt 0.0200 0.3629 0.0000
vt 0.0480 0.4933 0.0000
vt 0.1255 0.6023 0.0000
vt 0.2332 0.6711 0.0000
vt 0.6164 0.9026 0.0000
vt 0.6164 0.5984 0.0000
vt 0.5698 0.8328 0.0000
vt 0.5698 0.6682 0.0000
vt 0.5534 0.7505 0.0000
vt 0.8508 0.5625 0.0000
vt 0.8508 0.9492 0.0000
vt 0.9151 0.6086 0.0000
vt 0.9206 0.9026 0.0000
vt 0.9304 0.6682 0.0000
vt 0.9672 0.8328 0.0000
vt 0.9800 0.7505 0.0000
# 97 texture coords

g right
usemtl 08___Default
s 5
f 1/1/1 2/2/2 3/3/3 
f 1/1/1 4/4/4 2/2/2 
f 1/1/1 5/5/5 4/4/4 
f 1/1/1 6/6/6 5/5/5 
f 1/1/1 7/7/7 6/6/6 
f 1/1/1 8/8/8 7/7/7 
f 1/1/1 9/9/9 8/8/8 
f 1/1/1 10/10/10 9/9/9 
f 1/1/1 11/11/11 10/10/10 
f 1/1/1 12/12/12 11/11/11 
f 1/1/1 13/13/13 12/12/12 
f 1/1/1 14/14/14 13/13/13 
f 1/1/1 15/15/15 14/14/14 
f 1/1/1 16/16/16 15/15/15 
f 1/1/1 17/17/17 16/16/16 
f 1/1/1 3/3/3 17/17/17 
f 3/3/3 2/2/2 18/18/18 19/19/19 
f 2/2/2 4/4/4 20/20/20 18/18/18 
f 4/4/4 5/5/5 21/21/21 20/20/20 
f 5/5/5 6/6/6 22/22/22 21/21/21 
f 6/6/6 7/7/7 23/23/23 22/22/22 
f 7/7/7 8/8/8 24/24/24 23/23/23 
f 8/8/8 9/9/9 25/25/25 24/24/24 
f 9/9/9 10/10/10 26/26/26 25/25/25 
f 10/10/10 11/11/11 27/27/27 26/26/26 
f 11/11/11 12/12/12 28/28/28 27/27/27 
f 12/12/12 13/13/13 29/29/29 28/28/28 
f 13/13/13 14/14/14 30/30/30 29/29/29 
f 14/14/14 15/15/15 31/31/31 30/30/30 
f 15/15/15 16/16/16 32/32/32 31/31/31 
f 16/16/16 17/17/17 33/33/33 32/32/32 
f 17/17/17 3/3/3 19/19/19 33/33/33 
f 19/19/19 18/18/18 34/34/34 35/35/35 
f 18/18/18 20/20/20 36/36/36 34/34/34 
f 20/20/20 21/21/21 37/37/37 36/36/36 
f 21/21/21 22/22/22 38/38/38 37/37/37 
f 22/22/22 23/23/23 39/39/39 38/38/38 
f 23/23/23 24/24/24 40/40/40 39/39/39 
f 24/24/24 25/25/25 41/41/41 40/40/40 
f 25/25/25 26/26/26 42/42/42 41/41/41 
f 26/26/26 27/27/27 43/43/43 42/42/42 
f 27/27/27 28/28/28 44/44/44 43/43/43 
f 28/28/28 29/29/29 45/45/45 44/44/44 
f 29/29/29 30/30/30 46/46/46 45/45/45 
f 30/30/30 31/31/31 47/47/47 46/46/46 
f 31/31/31 32/32/32 48/48/48 47/47/47 
f 32/32/32 33/33/33 49/49/49 48/48/48 
f 33/33/33 19/19/19 35/35/35 49/49/49 
f 35/35/35 34/34/34 50/50/50 51/51/51 
f 34/34/34 36/36/36 52/52/52 50/50/50 
f 36/36/36 37/37/37 53/53/53 52/52/52 
f 37/37/37 38/38/38 54/54/54 53/53/53 
f 38/38/38 39/39/39 55/55/55 54/54/54 
f 39/39/39 40/40/40 56/56/56 55/55/55 
f 40/40/40 41/41/41 57/57/57 56/56/56 
f 41/41/41 42/42/42 58/58/58 57/57/57 
f 42/42/42 43/43/43 59/59/59 58/58/58 
f 43/43/43 44/44/44 60/60/60 59/59/59 
f 44/44/44 45/45/45 61/61/61 60/60/60 
f 45/45/45 46/46/46 62/62/62 61/61/61 
f 46/46/46 47/47/47 63/63/63 62/62/62 
f 47/47/47 48/48/48 64/64/64 63/63/63 
f 48/48/48 49/49/49 65/65/65 64/64/64 
f 49/49/49 35/35/35 51/51/51 65/65/65 
f 66/66/66 67/67/67 68/68/68 69/69/69 
s 6
f 51/51/51 50/50/50 70/70/70 66/71/66 
f 50/50/50 52/52/52 71/72/71 70/70/70 
f 52/52/52 53/53/53 72/73/72 71/72/71 
f 53/53/53 54/54/54 73/74/73 72/73/72 
f 54/54/54 55/55/55 74/75/74 73/74/73 
f 55/55/55 56/56/56 75/76/75 74/75/74 
f 56/56/56 57/57/57 76/77/76 75/76/75 
f 57/57/57 58/58/58 67/78/67 76/77/76 
f 58/58/58 59/59/59 68/79/68 67/78/67 
f 59/59/59 60/60/60 77/80/77 68/79/68 
f 60/60/60 61/61/61 78/81/78 77/80/77 
f 61/61/61 62/62/62 79/82/79 78/81/78 
f 62/62/62 63/63/63 80/83/80 79/82/79 
f 63/63/63 64/64/64 81/84/81 80/83/80 
f 64/64/64 65/65/65 69/85/69 81/84/81 
f 65/65/65 51/51/51 66/71/66 69/85/69 
s 5
f 68/68/68 77/86/77 81/87/81 69/69/69 
f 77/86/77 78/88/78 80/89/80 81/87/81 
f 78/88/78 79/90/79 80/89/80 
f 66/66/66 70/91/70 76/92/76 67/67/67 
f 70/91/70 71/93/71 75/94/75 76/92/76 
f 71/93/71 72/95/72 74/96/74 75/94/75 
f 72/95/72 73/97/73 74/96/74 
# 70 polygons - 18 triangles

